Prometheus 3D - (2012) 3D Blu ray rip 3DTV Active Shutter (side by side)1920x800

 
http://www.imdb.com/title/tt1446714/


Video
ID                             : 1
Format                         : AVC
Format/Info                    : Advanced Video Codec
Format profile                 : High@L5.1
Format settings, CABAC         : Yes
Format settings, ReFrames      : 2 frames
Format settings, GOP           : M=3, N=15
Codec ID                       : V_MPEG4/ISO/AVC
Duration                       : 2h 3mn
Bit rate mode                  : Variable
Bit rate                       : 12.6 Mbps
Maximum bit rate               : 19.3 Mbps
Width                          : 1920 pixels
Height                         : 800 pixels
Display aspect ratio           : 2.40:1
Frame rate                     : 23.976 fps
Color space                    : YUV
Chroma subsampling             : 4:2:0
Bit depth                      : 8 bits
Scan type                      : Progressive
Bits/(Pixel*Frame)             : 0.342
Stream size                    : 10.9 GiB (93%)
Default                        : Yes
Forced                         : No

Audio
ID                             : 2
Format                         : AC-3
Format/Info                    : Audio Coding 3
Mode extension                 : CM (complete main)
Codec ID                       : A_AC3
Duration                       : 2h 3mn
Bit rate mode                  : Constant
Bit rate                       : 640 Kbps
Channel(s)                     : 6 channels
Channel positions              : Front: L C R, Side: L R, LFE
Sampling rate                  : 48.0 KHz
Bit depth                      : 16 bits
Compression mode               : Lossy
Stream size                    : 567 MiB (5%)
Default                        : Yes
Forced                         : No

 
 
 
 

